<?xml version="1.0" standalone="no"?><!DOCTYPE svg PUBLIC "-//W3C//DTD SVG 1.1//EN" "http://www.w3.org/Graphics/SVG/1.1/DTD/svg11.dtd"><svg t="1510102665411" class="icon" style="" viewBox="0 0 1024 1024" version="1.1" xmlns="http://www.w3.org/2000/svg" p-id="27049" xmlns:xlink="http://www.w3.org/1999/xlink" width="200" height="200"><defs><style type="text/css"></style></defs><path d="M636.575669 710.86116C633.976177 703.862527 633.976177 693.86448 633.976177 681.866823c109.97852-12.59754 185.963679-38.992384 185.963678-68.586604v-2.599493c-82.983792-73.585628 70.986136-593.884007-212.558484-583.885959C589.984769 12.59754 558.5909 0 514.599492 0c-383.925015 26.994728-214.958016 520.49834-302.940832 613.48018 0 29.59422 75.585237 55.989065 180.564734 65.987112 0 7.598516-1.999609 16.99668-1.99961 31.593829-43.991408 119.976567-339.933607 85.983206-354.530755 312.938879h952.813903c-14.597149-227.155634-307.939855-193.162273-351.931263-313.13884z" fill="#FF31C1" p-id="27050"></path></svg>