<?xml version="1.0" standalone="no"?><!DOCTYPE svg PUBLIC "-//W3C//DTD SVG 1.1//EN" "http://www.w3.org/Graphics/SVG/1.1/DTD/svg11.dtd"><svg t="1510102648256" class="icon" style="" viewBox="0 0 1024 1024" version="1.1" xmlns="http://www.w3.org/2000/svg" p-id="25840" xmlns:xlink="http://www.w3.org/1999/xlink" width="200" height="200"><defs><style type="text/css"></style></defs><path d="M32.693615 1023.800039c3.399336-52.78969 21.595782-97.38098 59.788322-133.173989 32.993556-30.793986 72.385862-50.390158 113.377856-67.986722 42.591681-18.196446 84.983402-36.592853 126.9752-55.789103 10.198008-4.599102 19.396212-12.197618 28.194493-19.596173 17.996485-15.197032 29.394259-33.593439 28.994337-58.388596-0.399922-26.194884 0.399922-52.589729 0.399922-78.784612 0-2.999414-0.799844-6.798672-2.799453-8.798282-30.993946-31.193907-44.791252-70.786175-54.189416-112.378051-0.799844-3.799258-4.799063-7.398555-7.998438-10.198008-2.399531-2.19957-5.998828-2.799453-8.59832-4.599102-28.994337-20.396016-36.992775-85.583285-14.397188-112.777973 2.799453-3.399336 3.599297-10.59793 2.399531-15.197032-11.397774-47.990627-19.396212-96.581136-17.396602-146.171451 1.999609-45.791056 11.797696-89.382542 40.592071-126.575278 27.794571-35.99297 65.787151-55.189221 108.578794-64.587385 40.592072-8.998243 81.983988-12.59754 123.175942-3.399336 23.995313 5.398946 46.190978 14.197227 61.587971 34.993165 1.999609 2.799453 6.598711 4.799063 10.397969 5.398945 64.587385 11.397774 96.781097 58.788518 105.179457 118.776802 8.798282 61.38801-1.599688 120.976372-18.596368 179.564929-2.19957 7.798477-2.799453 13.397383 3.799258 20.396016 15.996876 16.99668 14.397188 38.392501 9.598126 59.388401-5.398946 23.395431-11.597735 46.390939-37.99258 56.388986-2.999414 1.199766-4.599102 7.998438-5.398945 12.397579-6.39875 33.7934-16.99668 66.986917-39.192346 93.1818-14.197227 16.596758-16.596758 32.993556-15.796914 52.189807 0.799844 19.996095 0.999805 40.19215 1.399726 60.388205 0.399922 19.196251 11.197813 33.193517 24.195275 45.391135 23.395431 21.995704 52.189807 34.993165 81.184143 47.590705 46.190978 20.196055 93.381761 38.392501 137.973053 61.587971 53.189611 27.794571 91.982035 69.586409 106.179261 130.374536 2.999414 12.997461 4.599102 26.394845 6.798673 40.592072-319.937512-0.199961-638.075376-0.199961-958.41281-0.199961z" fill="#1976D2" p-id="25841"></path></svg>